:SAMPLES-PER-SECOND 30
:FULLY-SPECIFIED
:DEGREES
292
root  44.1676 36.7894 18.9525 173.426 12.4067 175.288
RightUpLeg  -11.0366 -10.4845 -26.6527
RightLeg  12.8931 2.92743 -2.28205
RightFoot  -5.30977 -0.542398 9.03594
RightToes  1.33877e-009 0 -3.6325e-017
Spine  15.0517 0.239628 2.12329
Spine1  6.56472 1.67897 -4.09777
HEad  -14.6142 -8.34447 0.0459185
LeftShoulder1  -0.210081 4.11164 -28.3697
LeftArm  -8.58807 11.1522 -34.587
LeftForeArm  57.2408 -78.6544 -70.1079
LeftHand  -0.127964 2.23148 4.33391
RightShoulder  -0.622631 -5.39206 26.2544
RightArm  -10.4954 -12.0435 36.2709
RightForeArm  103.314 76.221 126.612
RightHand  -0.0720059 1.33128 -1.37178
LeftUpLeg  -0.616809 -7.34938 14.2415
LeftLeg  19.7013 -4.94438 -1.63852
LeftFoot  -13.6334 -0.145529 -11.3598
LeftToes  -1.45701e-009 4.75788e-011 -4.21586e-011
293
root  45.59 36.326 18.8859 173.72 12.3966 176.252
RightUpLeg  -13.8852 -9.04461 -25.7248
RightLeg  19.0168 2.64067 0.768841
RightFoot  0.335342 -1.28752 12.7611
RightToes  1.33877e-009 0 -3.6325e-017
Spine  16.2286 -0.538599 5.3669
Spine1  6.46932 1.71933 -5.65342
HEad  -16.0773 -7.21657 -0.896592
LeftShoulder1  -0.282004 4.31567 -28.5711
LeftArm  -9.55641 10.9503 -34.6929
LeftForeArm  57.0647 -78.6391 -69.8139
LeftHand  -0.17047 2.1574 5.84857
RightShoulder  -0.552101 -5.18229 26.1221
RightArm  -10.3949 -10.4049 36.8403
RightForeArm  100.903 76.5143 124.685
RightHand  -0.100559 1.71997 -1.80175
LeftUpLeg  -1.40595 -8.11687 17.3536
LeftLeg  21.949 -3.76945 -1.34174
LeftFoot  -13.6399 -0.148476 -11.5738
LeftToes  -1.45701e-009 4.75788e-011 -4.21586e-011
294
root  47.031 35.972 18.9036 174.264 12.2877 177.545
RightUpLeg  -17.0441 -12.7022 -22.5138
RightLeg  25.7964 6.03777 2.96651
RightFoot  -0.344646 -1.30539 13.4432
RightToes  1.33877e-009 0 -3.6325e-017
Spine  17.7964 -1.04535 7.5473
Spine1  6.01065 1.60222 -5.8132
HEad  -18.0323 -5.75117 -1.59536
LeftShoulder1  -0.241388 4.20854 -28.0866
LeftArm  -10.7053 11.4217 -36.1865
LeftForeArm  58.4258 -78.7044 -69.8619
LeftHand  -0.15373 2.54544 5.85026
RightShoulder  -0.535684 -5.12177 26.3233
RightArm  -10.0964 -8.31212 36.7374
RightForeArm  97.6124 76.9974 121.368
RightHand  -0.0957004 1.79786 -1.70309
LeftUpLeg  -3.72761 -8.49952 20.5753
LeftLeg  26.0929 -0.551948 0.0697063
LeftFoot  -10.7013 0.119643 -10.4724
LeftToes  -1.45701e-009 4.75788e-011 -4.21586e-011
295
root  48.3058 35.8637 18.9655 174.489 10.866 177.921
RightUpLeg  -18.5333 -16.0542 -20.5303
RightLeg  30.6858 6.92324 4.15616
RightFoot  -2.85435 -0.875684 11.4857
RightToes  1.33877e-009 0 -3.6325e-017
Spine  19.2832 -1.67959 8.03766
Spine1  6.02205 0.820289 -4.01212
HEad  -19.504 -4.74616 -1.58392
LeftShoulder1  -0.190841 4.05731 -28.3059
LeftArm  -11.4652 10.851 -37.0092
LeftForeArm  60.1419 -78.7746 -69.3813
LeftHand  -0.197807 2.15519 6.83496
RightShoulder  -0.486271 -4.96497 26.427
RightArm  -10.3249 -6.42227 36.6912
RightForeArm  93.0561 77.4822 117.232
RightHand  -0.130879 2.10393 -2.21151
LeftUpLeg  -7.34477 -9.99254 21.5893
LeftLeg  31.3204 5.30915 3.89012
LeftFoot  -4.15866 0.413761 -6.83891
LeftToes  -1.45701e-009 4.75788e-011 -4.21586e-011
296
root  49.3804 35.9443 19.0302 175.042 9.60345 178.657
RightUpLeg  -19.2196 -17.0047 -18.137
RightLeg  32.9134 5.88319 3.84522
RightFoot  -4.56817 -0.584321 9.34867
RightToes  1.33877e-009 0 -3.6325e-017
Spine  21.0674 -2.57982 9.73096
Spine1  5.03065 0.182035 -3.63578
HEad  -19.8758 -3.99312 -1.81118
LeftShoulder1  -0.166489 3.98233 -28.6388
LeftArm  -10.9553 9.68842 -37.2029
LeftForeArm  59.6191 -78.6798 -67.026
LeftHand  -0.223208 2.04425 7.53749
RightShoulder  -0.435858 -4.82466 26.1018
RightArm  -11.1326 -5.89291 36.7824
RightForeArm  90.145 77.8034 114.123
RightHand  -0.128732 2.23276 -2.14915
LeftUpLeg  -11.9228 -9.98059 21.7438
LeftLeg  37.9578 8.94478 7.67037
LeftFoot  0.63679 0.154843 -1.24361
LeftToes  -1.45701e-009 4.75788e-011 -4.21586e-011
297
root  50.3171 36.1869 19.0287 176.091 9.57074 178.889
RightUpLeg  -19.9781 -17.4075 -16.0108
RightLeg  33.0871 5.68885 3.73175
RightFoot  -5.69598 -0.447416 8.29744
RightToes  1.33877e-009 0 -3.6325e-017
Spine  21.3514 -2.68059 10.9735
Spine1  5.45033 0.302038 -3.7421
HEad  -20.5616 -3.75862 -2.50855
LeftShoulder1  -0.0774832 3.72443 -28.9483
LeftArm  -9.63827 8.38128 -37.6251
LeftForeArm  55.128 -78.2909 -63.0389
LeftHand  -0.241675 1.41735 6.93795
RightShoulder  -0.431244 -4.82328 25.7207
RightArm  -12.5498 -5.51709 36.6371
RightForeArm  86.931 78.0199 111.379
RightHand  -0.128314 2.18161 -2.15318
LeftUpLeg  -16.0859 -7.88755 20.0368
LeftLeg  44.0131 6.59906 7.17915
LeftFoot  -1.49456 0.0564878 -0.548732
LeftToes  -1.45701e-009 4.75788e-011 -4.21586e-011
298
root  51.1413 36.5283 18.927 177.24 9.8184 178.208
RightUpLeg  -20.4058 -17.59 -14.9788
RightLeg  32.0804 5.59084 3.51794
RightFoot  -6.73034 -0.392837 8.61362
RightToes  1.33877e-009 0 -3.6325e-017
Spine  21.3831 -2.20805 10.3665
Spine1  5.89429 0.338091 -2.43398
HEad  -21.1452 -3.5203 -3.69092
LeftShoulder1  -0.0864665 3.74605 -29.5687
LeftArm  -8.0676 7.3493 -38.0095
LeftForeArm  51.7037 -77.9353 -59.981
LeftHand  -0.258417 0.910456 6.67079
RightShoulder  -0.360558 -4.63337 24.8702
RightArm  -14.1031 -5.9205 36.4471
RightForeArm  86.3849 78.0725 110.75
RightHand  -0.125218 2.24441 -2.09338
LeftUpLeg  -19.8101 -4.70361 15.8178
LeftLeg  48.6527 5.22397 6.76196
LeftFoot  -3.50458 0.0454553 -0.378813
LeftToes  -1.45701e-009 4.75788e-011 -4.21586e-011
299
root  51.8956 36.9439 18.7647 178.382 9.76033 177.321
RightUpLeg  -20.2375 -18.3707 -14.3682
RightLeg  30.1877 5.75728 3.37424
RightFoot  -7.34989 -0.36806 9.09752
RightToes  1.33877e-009 0 -3.6325e-017
Spine  21.3679 -2.10352 10.2014
Spine1  5.91862 0.35869 -2.71176
HEad  -21.3957 -3.43599 -4.26994
LeftShoulder1  -0.0998763 3.78315 -29.5941
LeftArm  -6.342 6.98731 -38.1386
LeftForeArm  49.2378 -77.711 -58.6314
LeftHand  -0.247951 0.634903 6.02077
RightShoulder  -0.473022 -4.96419 25.5519
RightArm  -14.9212 -6.59855 35.2551
RightForeArm  87.585 78.0056 111.71
RightHand  -0.113549 2.34421 -1.89834
LeftUpLeg  -22.8167 -0.476227 10.4045
LeftLeg  50.3926 4.46475 6.21624
LeftFoot  -5.15209 0.109439 -1.46619
LeftToes  -1.45701e-009 4.75788e-011 -4.21586e-011
300
root  52.6391 37.4134 18.562 179.831 9.39988 176.815
RightUpLeg  -19.764 -19.0165 -13.3329
RightLeg  27.4003 5.52079 2.86244
RightFoot  -7.34066 -0.368704 9.10578
RightToes  1.33877e-009 0 -3.6325e-017
Spine  21.0847 -1.9562 9.849
Spine1  5.55511 0.23294 -2.59462
HEad  -21.4093 -2.90853 -5.18864
LeftShoulder1  -0.122099 3.83864 -30.3485
LeftArm  -4.89591 7.55624 -37.5285
LeftForeArm  50.8143 -77.9122 -60.3173
LeftHand  -0.172595 1.64975 5.2026
RightShoulder  -0.472257 -4.96129 25.5191
RightArm  -15.7555 -8.52975 34.6876
RightForeArm  90.7547 77.6642 115.309
RightHand  -0.122832 2.52963 -2.0079
LeftUpLeg  -25.3672 4.28093 4.8476
LeftLeg  48.8384 4.72515 6.18552
LeftFoot  -5.93427 0.184442 -3.1244
LeftToes  -1.45701e-009 4.75788e-011 -4.21586e-011
301
root  53.3488 37.8164 18.3486 -179.082 8.31749 176.41
RightUpLeg  -18.7447 -20.8097 -12.5555
RightLeg  24.9039 5.99789 2.8078
RightFoot  -7.5249 -0.358605 9.20672
RightToes  1.33877e-009 0 -3.6325e-017
Spine  20.8215 -2.04694 9.61055
Spine1  5.60973 0.039731 -2.89774
HEad  -21.9445 -2.93996 -5.47545
LeftShoulder1  -0.128031 3.85436 -30.399
LeftArm  -3.63743 7.84337 -37.7428
LeftForeArm  51.9458 -78.022 -61.1393
LeftHand  -0.143503 1.30244 3.92935
RightShoulder  -0.572049 -5.24653 26.0766
RightArm  -16.5312 -10.2881 33.999
RightForeArm  94.5487 77.2629 119.012
RightHand  -0.0785866 2.60306 -1.33099
LeftUpLeg  -27.0023 6.93814 -0.601386
LeftLeg  44.69 5.15025 5.86505
LeftFoot  -6.14445 0.218942 -4.00854
LeftToes  -1.45701e-009 4.75788e-011 -4.21586e-011
302
root  53.9908 38.054 18.1023 -178.226 6.87726 176.736
RightUpLeg  -17.8369 -22.4993 -11.2556
RightLeg  23.4965 6.07011 2.66457
RightFoot  -7.74418 -0.336082 9.00494
RightToes  1.33877e-009 0 -3.6325e-017
Spine  20.7628 -2.12806 9.75332
Spine1  5.46855 -0.278053 -2.16251
HEad  -22.3675 -3.13285 -5.73363
LeftShoulder1  -0.0991545 3.77257 -30.7987
LeftArm  -2.84613 7.94811 -38.0868
LeftForeArm  53.6368 -78.1874 -62.5023
LeftHand  -0.122905 1.63745 3.59364
RightShoulder  -0.524753 -5.11191 25.8365
RightArm  -17.7541 -12.5333 33.7954
RightForeArm  99.1076 76.8359 122.635
RightHand  0.0683575 2.55236 0.77937
LeftUpLeg  -27.7465 7.84455 -4.36954
LeftLeg  38.9826 4.22684 4.03366
LeftFoot  -6.81161 0.214796 -4.39436
LeftToes  -1.45701e-009 4.75788e-011 -4.21586e-011
